<svg xmlns="http://www.w3.org/2000/svg" width="520" height="340" viewBox="0 0 520 340">
<rect width="520" height="340" fill="#ffffff"/>

<g stroke="#ef6b73" stroke-width="2" fill="none" stroke-linecap="round">
  <path d="M60 255 H220"/>
  <path d="M75 245 l-15 10 l15 10"/>
  <path d="M205 245 l15 10 l-15 10"/>
  <path d="M54 135 V255"/>
  <path d="M44 150 l10 -15 l10 15"/>
  <path d="M44 240 l10 15 l10 -15"/>
  <path d="M92 210 L40 210"/>
</g>
<g fill="#777" font-size="16" font-weight="600">
  <text x="134" y="277">가로</text>
  <text x="18" y="192" transform="rotate(-90 18 192)">높이</text>
  <text x="62" y="230">세로</text>
</g>
<g stroke="#6b9bb0" stroke-width="3">
<polygon points="80,200 165,170 250,200 165,230" fill="#d8f7ff"/>
<polygon points="80,200 165,230 165,285 80,255" fill="#9fe4f6"/>
<polygon points="165,230 250,200 250,255 165,285" fill="#6dc8e2"/>
<polygon points="125,150 210,120 250,200 165,170" fill="#eefcff"/>
<polygon points="125,150 165,170 120,120 80,145" fill="#d8f7ff"/>
</g>
<text x="260.0" y="324" text-anchor="middle" font-size="20" font-weight="700" fill="#555">P형 박스</text>
</svg>