<svg xmlns="http://www.w3.org/2000/svg" width="520" height="360" viewBox="0 0 520 360">
<rect width="520" height="360" rx="20" fill="#f8fcff"/>

<polygon points="115,170 210,145 305,170 210,195" fill="#d8f7ff" stroke="#6b9bb0" stroke-width="3"/>
<polygon points="115,170 210,195 210,285 115,260" fill="#9fe4f6" stroke="#6b9bb0" stroke-width="3"/>
<polygon points="210,195 305,170 305,260 210,285" fill="#6dc8e2" stroke="#6b9bb0" stroke-width="3"/>
<polygon points="145,125 240,100 305,170 210,145" fill="#d8f7ff" stroke="#6b9bb0" stroke-width="3"/>
<polygon points="210,145 305,170 335,135 240,100" fill="#9fe4f6" stroke="#6b9bb0" stroke-width="3"/>
<polygon points="145,125 115,170 210,145 240,100" fill="#6dc8e2" stroke="#6b9bb0" stroke-width="3"/>
<circle cx="340" cy="138" r="34" fill="#c7ccd6" stroke="#818792" stroke-width="2"/>
<rect x="323" y="126" width="20" height="14" rx="2" fill="#6dc8e2" stroke="#6b9bb0" stroke-width="2"/>
<rect x="333" y="116" width="20" height="14" rx="2" fill="#d8f7ff" stroke="#6b9bb0" stroke-width="2"/>

<text x="260.0" y="342" text-anchor="middle" font-size="22" font-weight="800" fill="#444">B형 원터치박스</text>
</svg>