<svg xmlns="http://www.w3.org/2000/svg" width="500" height="420" viewBox="0 0 500 420">
<rect width="500" height="420" fill="#f7f7f7"/>
<polygon points="150,120 250,95 330,145 230,170" fill="#d4efff" stroke="#4d91ba" stroke-width="3"/>
<polygon points="90,150 150,120 230,170 170,200" fill="#8fd0f4" stroke="#4d91ba" stroke-width="3"/>
<polygon points="230,170 330,145 330,250 230,280" fill="#5ab2e6" stroke="#4d91ba" stroke-width="3"/>
<polygon points="170,200 230,170 230,280 170,310" fill="#8fd0f4" stroke="#4d91ba" stroke-width="3"/>
<polygon points="90,150 170,200 170,310 90,260" fill="#5ab2e6" stroke="#4d91ba" stroke-width="3"/>
<polygon points="90,150 150,120 120,65 65,100" fill="#d4efff" stroke="#4d91ba" stroke-width="3"/>
<polygon points="150,120 250,95 225,50 120,65" fill="#d4efff" stroke="#4d91ba" stroke-width="3"/>
<polygon points="250,95 330,145 375,92 225,50" fill="#d4efff" stroke="#4d91ba" stroke-width="3"/>
<text x="250" y="392" text-anchor="middle" font-size="30" font-weight="700" fill="#4a4a4a">B형 원터치박스</text>
</svg>