<svg xmlns="http://www.w3.org/2000/svg" width="520" height="340" viewBox="0 0 520 340">
<rect width="520" height="340" fill="#ffffff"/>

<g stroke="#ef6b73" stroke-width="2" fill="none" stroke-linecap="round">
  <path d="M60 255 H220"/>
  <path d="M75 245 l-15 10 l15 10"/>
  <path d="M205 245 l15 10 l-15 10"/>
  <path d="M54 135 V255"/>
  <path d="M44 150 l10 -15 l10 15"/>
  <path d="M44 240 l10 15 l10 -15"/>
  <path d="M92 210 L40 210"/>
</g>
<g fill="#777" font-size="16" font-weight="600">
  <text x="134" y="277">가로</text>
  <text x="18" y="192" transform="rotate(-90 18 192)">높이</text>
  <text x="62" y="230">세로</text>
</g>
<g stroke="#b08538" stroke-width="3">
<polygon points="120,120 205,92 275,132 190,162" fill="#edd18b"/>
<polygon points="90,150 120,120 190,162 160,192" fill="#dfbc66"/>
<polygon points="190,162 275,132 275,242 190,272" fill="#cfa64b"/>
<polygon points="160,192 190,162 190,272 160,302" fill="#dfbc66"/>
<polygon points="90,150 160,192 160,302 90,260" fill="#cfa64b"/>
<path d="M168 128 q22 -24 44 0" fill="none" stroke="#8b6730" stroke-width="8" stroke-linecap="round"/>
<path d="M188 128 q22 -24 44 0" fill="none" stroke="#8b6730" stroke-width="8" stroke-linecap="round"/>
</g>
<text x="260.0" y="324" text-anchor="middle" font-size="20" font-weight="700" fill="#555">Y형 손잡이박스</text>
</svg>