<svg xmlns="http://www.w3.org/2000/svg" width="520" height="340" viewBox="0 0 520 340">
<rect width="520" height="340" fill="#ffffff"/>

<g stroke="#ef6b73" stroke-width="2" fill="none" stroke-linecap="round">
  <path d="M60 255 H220"/>
  <path d="M75 245 l-15 10 l15 10"/>
  <path d="M205 245 l15 10 l-15 10"/>
  <path d="M54 135 V255"/>
  <path d="M44 150 l10 -15 l10 15"/>
  <path d="M44 240 l10 15 l10 -15"/>
  <path d="M92 210 L40 210"/>
</g>
<g fill="#777" font-size="16" font-weight="600">
  <text x="134" y="277">가로</text>
  <text x="18" y="192" transform="rotate(-90 18 192)">높이</text>
  <text x="62" y="230">세로</text>
</g>
<g stroke="#b08538" stroke-width="3">
<polygon points="95,145 180,115 250,155 165,185" fill="#edd18b"/>
<polygon points="70,165 95,145 165,185 140,205" fill="#dfbc66"/>
<polygon points="165,185 250,155 250,250 165,280" fill="#cfa64b"/>
<polygon points="140,205 165,185 165,280 140,300" fill="#dfbc66"/>
<polygon points="70,165 140,205 140,300 70,260" fill="#cfa64b"/>
<polygon points="95,145 180,115 180,85 95,110" fill="#edd18b"/>
<polygon points="180,115 250,155 280,128 180,85" fill="#f0d995"/>
</g>
<circle cx="315" cy="130" r="45" fill="#c8ccd4" stroke="#8e939d" stroke-width="2"/>
<g transform="translate(292,108) scale(0.42)" stroke="#b08538" stroke-width="3">
<polygon points="95,145 180,115 250,155 165,185" fill="#edd18b"/>
<polygon points="70,165 95,145 165,185 140,205" fill="#dfbc66"/>
<polygon points="165,185 250,155 250,250 165,280" fill="#cfa64b"/>
</g>
<text x="260.0" y="324" text-anchor="middle" font-size="20" font-weight="700" fill="#555">B형 박스</text>
</svg>