<svg xmlns="http://www.w3.org/2000/svg" width="520" height="360" viewBox="0 0 520 360">
<rect width="520" height="360" rx="20" fill="#fbfbfb"/>

<rect x="60" y="110" width="400" height="95" rx="8" fill="#f2e2be" opacity="0.4"/>
<path d="M70 135 q18 -18 36 0 t36 0 t36 0 t36 0 t36 0 t36 0 t36 0 t36 0" fill="none" stroke="#8b5e2f" stroke-width="6"/><path d="M70 153 q18 -18 36 0 t36 0 t36 0 t36 0 t36 0 t36 0 t36 0 t36 0" fill="none" stroke="#8b5e2f" stroke-width="6"/><path d="M70 171 q18 -18 36 0 t36 0 t36 0 t36 0 t36 0 t36 0 t36 0 t36 0" fill="none" stroke="#8b5e2f" stroke-width="6"/><path d="M70 189 q18 -18 36 0 t36 0 t36 0 t36 0 t36 0 t36 0 t36 0 t36 0" fill="none" stroke="#8b5e2f" stroke-width="6"/><path d="M70 207 q18 -18 36 0 t36 0 t36 0 t36 0 t36 0 t36 0 t36 0 t36 0" fill="none" stroke="#8b5e2f" stroke-width="6"/><path d="M70 225 q18 -18 36 0 t36 0 t36 0 t36 0 t36 0 t36 0 t36 0 t36 0" fill="none" stroke="#8b5e2f" stroke-width="6"/><path d="M70 243 q18 -18 36 0 t36 0 t36 0 t36 0 t36 0 t36 0 t36 0 t36 0" fill="none" stroke="#8b5e2f" stroke-width="6"/>
<text x="60" y="295" font-size="18" fill="#666">A골+B골 조합, 강도 우수</text>

<text x="260.0" y="342" text-anchor="middle" font-size="22" font-weight="800" fill="#444">BA골</text>
</svg>