<svg xmlns="http://www.w3.org/2000/svg" width="520" height="340" viewBox="0 0 520 340">
<rect width="520" height="340" fill="#ffffff"/>
<rect x="60" y="110" width="400" height="95" rx="8" fill="#f2e2be" opacity="0.4"/><path d="M70 126 q18 -18 36 0 t36 0 t36 0 t36 0 t36 0 t36 0 t36 0 t36 0" fill="none" stroke="#8b5e2f" stroke-width="6"/><path d="M70 144 q18 -18 36 0 t36 0 t36 0 t36 0 t36 0 t36 0 t36 0 t36 0" fill="none" stroke="#8b5e2f" stroke-width="6"/><path d="M70 162 q18 -18 36 0 t36 0 t36 0 t36 0 t36 0 t36 0 t36 0 t36 0" fill="none" stroke="#8b5e2f" stroke-width="6"/><text x="60" y="300" font-size="18" fill="#666">약 2.5~3mm. 강도와 인쇄성이 균형 좋습니다.</text>
<text x="260.0" y="324" text-anchor="middle" font-size="20" font-weight="700" fill="#555">B골</text>
</svg>