<svg xmlns="http://www.w3.org/2000/svg" width="500" height="280" viewBox="0 0 500 280">
<rect width="500" height="280" fill="#fafafa"/>
<rect x="70" y="110" width="360" height="138" rx="4" fill="#f0e1c0" opacity="0.3"/><path d="M80 130 q20 -20 40 0 t40 0 t40 0 t40 0 t40 0 t40 0 t40 0" fill="none" stroke="#9a6a2a" stroke-width="7"/><path d="M80 148 q20 -20 40 0 t40 0 t40 0 t40 0 t40 0 t40 0 t40 0" fill="none" stroke="#9a6a2a" stroke-width="7"/><path d="M80 166 q20 -20 40 0 t40 0 t40 0 t40 0 t40 0 t40 0 t40 0" fill="none" stroke="#9a6a2a" stroke-width="7"/><path d="M80 184 q20 -20 40 0 t40 0 t40 0 t40 0 t40 0 t40 0 t40 0" fill="none" stroke="#9a6a2a" stroke-width="7"/><path d="M80 202 q20 -20 40 0 t40 0 t40 0 t40 0 t40 0 t40 0 t40 0" fill="none" stroke="#9a6a2a" stroke-width="7"/><path d="M80 220 q20 -20 40 0 t40 0 t40 0 t40 0 t40 0 t40 0 t40 0" fill="none" stroke="#9a6a2a" stroke-width="7"/>
<text x="75" y="60" font-size="34" font-weight="700" fill="#555">BB골</text>
<text x="75" y="240" font-size="18" fill="#666">B골+B골 조합, 중량물에 적합</text>
</svg>