<svg xmlns="http://www.w3.org/2000/svg" width="560" height="360" viewBox="0 0 560 360">
<rect width="560" height="360" rx="28" fill="#fafafa"/>
<rect x="58" y="90" width="74" height="74" rx="12" fill="#fff" stroke="#d1d5db" stroke-width="2"/><circle cx="74" cy="106" r="14" fill="#60a5fa"/><text x="74" y="112" text-anchor="middle" font-size="14" font-weight="800" fill="#fff">1</text><rect x="78" y="120" width="34" height="24" rx="4" fill="#bfdbfe" stroke="#94a3b8" stroke-width="2"/><text x="95" y="184" text-anchor="middle" font-size="15" font-weight="700" fill="#444">인쇄</text><path d="M134 126 H154" stroke="#cbd5e1" stroke-width="4"/><path d="M154 126 l-7 -6 v12 z" fill="#cbd5e1"/><rect x="158" y="90" width="74" height="74" rx="12" fill="#fff" stroke="#d1d5db" stroke-width="2"/><circle cx="174" cy="106" r="14" fill="#60a5fa"/><text x="174" y="112" text-anchor="middle" font-size="14" font-weight="800" fill="#fff">2</text><rect x="178" y="120" width="34" height="24" rx="4" fill="#bfdbfe" stroke="#94a3b8" stroke-width="2"/><text x="195" y="184" text-anchor="middle" font-size="15" font-weight="700" fill="#444">후가공</text><path d="M234 126 H254" stroke="#cbd5e1" stroke-width="4"/><path d="M254 126 l-7 -6 v12 z" fill="#cbd5e1"/><rect x="258" y="90" width="74" height="74" rx="12" fill="#fff" stroke="#d1d5db" stroke-width="2"/><circle cx="274" cy="106" r="14" fill="#60a5fa"/><text x="274" y="112" text-anchor="middle" font-size="14" font-weight="800" fill="#fff">3</text><rect x="278" y="120" width="34" height="24" rx="4" fill="#bfdbfe" stroke="#94a3b8" stroke-width="2"/><text x="295" y="184" text-anchor="middle" font-size="15" font-weight="700" fill="#444">합지</text><path d="M334 126 H354" stroke="#cbd5e1" stroke-width="4"/><path d="M354 126 l-7 -6 v12 z" fill="#cbd5e1"/><rect x="358" y="90" width="74" height="74" rx="12" fill="#fff" stroke="#d1d5db" stroke-width="2"/><circle cx="374" cy="106" r="14" fill="#60a5fa"/><text x="374" y="112" text-anchor="middle" font-size="14" font-weight="800" fill="#fff">4</text><rect x="378" y="120" width="34" height="24" rx="4" fill="#bfdbfe" stroke="#94a3b8" stroke-width="2"/><text x="395" y="184" text-anchor="middle" font-size="15" font-weight="700" fill="#444">톰슨</text><path d="M434 126 H454" stroke="#cbd5e1" stroke-width="4"/><path d="M454 126 l-7 -6 v12 z" fill="#cbd5e1"/><rect x="458" y="90" width="74" height="74" rx="12" fill="#fff" stroke="#d1d5db" stroke-width="2"/><circle cx="474" cy="106" r="14" fill="#60a5fa"/><text x="474" y="112" text-anchor="middle" font-size="14" font-weight="800" fill="#fff">5</text><rect x="478" y="120" width="34" height="24" rx="4" fill="#bfdbfe" stroke="#94a3b8" stroke-width="2"/><text x="495" y="184" text-anchor="middle" font-size="15" font-weight="700" fill="#444">접착</text>
<text x="36" y="44" font-size="28" font-weight="800" fill="#111827">패키지 제작 과정</text>
<text x="36" y="76" font-size="16" fill="#6b7280">인쇄 > 후가공 > 합지 > 톰슨 > 접착</text>
</svg>