<svg xmlns="http://www.w3.org/2000/svg" width="760" height="250" viewBox="0 0 760 250">
<rect width="760" height="250" fill="#fafafa"/>
<text x="20" y="45" font-size="30" font-weight="700" fill="#333">칼라박스 제조공정</text><rect x="20" y="95" width="95" height="95" rx="12" fill="#fff" stroke="#bbb" stroke-width="2"/><circle cx="38" cy="113" r="14" fill="#4eb5d9"/><text x="38" y="119" text-anchor="middle" font-size="16" font-weight="700" fill="#fff">1</text><rect x="43" y="128" width="48" height="36" rx="4" fill="#d7c19b" stroke="#966e34" stroke-width="2"/><text x="67" y="212" text-anchor="middle" font-size="14" font-weight="700" fill="#444">인쇄</text><path d="M122 142 H142" stroke="#999" stroke-width="4"/><path d="M142 142 l-8 -6 v12 z" fill="#999"/><rect x="135" y="95" width="95" height="95" rx="12" fill="#fff" stroke="#bbb" stroke-width="2"/><circle cx="153" cy="113" r="14" fill="#4eb5d9"/><text x="153" y="119" text-anchor="middle" font-size="16" font-weight="700" fill="#fff">2</text><rect x="158" y="128" width="48" height="36" rx="4" fill="#d7c19b" stroke="#966e34" stroke-width="2"/><text x="182" y="212" text-anchor="middle" font-size="14" font-weight="700" fill="#444">표면가공</text><path d="M237 142 H257" stroke="#999" stroke-width="4"/><path d="M257 142 l-8 -6 v12 z" fill="#999"/><rect x="250" y="95" width="95" height="95" rx="12" fill="#fff" stroke="#bbb" stroke-width="2"/><circle cx="268" cy="113" r="14" fill="#4eb5d9"/><text x="268" y="119" text-anchor="middle" font-size="16" font-weight="700" fill="#fff">3</text><rect x="273" y="128" width="48" height="36" rx="4" fill="#d7c19b" stroke="#966e34" stroke-width="2"/><text x="297" y="212" text-anchor="middle" font-size="14" font-weight="700" fill="#444">합지</text><path d="M352 142 H372" stroke="#999" stroke-width="4"/><path d="M372 142 l-8 -6 v12 z" fill="#999"/><rect x="365" y="95" width="95" height="95" rx="12" fill="#fff" stroke="#bbb" stroke-width="2"/><circle cx="383" cy="113" r="14" fill="#4eb5d9"/><text x="383" y="119" text-anchor="middle" font-size="16" font-weight="700" fill="#fff">4</text><rect x="388" y="128" width="48" height="36" rx="4" fill="#d7c19b" stroke="#966e34" stroke-width="2"/><text x="412" y="212" text-anchor="middle" font-size="14" font-weight="700" fill="#444">톰슨</text><path d="M467 142 H487" stroke="#999" stroke-width="4"/><path d="M487 142 l-8 -6 v12 z" fill="#999"/><rect x="480" y="95" width="95" height="95" rx="12" fill="#fff" stroke="#bbb" stroke-width="2"/><circle cx="498" cy="113" r="14" fill="#4eb5d9"/><text x="498" y="119" text-anchor="middle" font-size="16" font-weight="700" fill="#fff">5</text><rect x="503" y="128" width="48" height="36" rx="4" fill="#d7c19b" stroke="#966e34" stroke-width="2"/><text x="527" y="212" text-anchor="middle" font-size="14" font-weight="700" fill="#444">접착</text><path d="M582 142 H602" stroke="#999" stroke-width="4"/><path d="M602 142 l-8 -6 v12 z" fill="#999"/><rect x="595" y="95" width="95" height="95" rx="12" fill="#fff" stroke="#bbb" stroke-width="2"/><circle cx="613" cy="113" r="14" fill="#4eb5d9"/><text x="613" y="119" text-anchor="middle" font-size="16" font-weight="700" fill="#fff">6</text><rect x="618" y="128" width="48" height="36" rx="4" fill="#d7c19b" stroke="#966e34" stroke-width="2"/><text x="642" y="212" text-anchor="middle" font-size="14" font-weight="700" fill="#444">포장</text>
</svg>