<svg xmlns="http://www.w3.org/2000/svg" width="760" height="260" viewBox="0 0 760 260">
<rect width="760" height="260" rx="18" fill="#fafafa"/>
<text x="24" y="46" font-size="28" font-weight="800" fill="#333">골판박스 제조공정</text>
<rect x="30" y="110" width="70" height="70" rx="12" fill="#fff" stroke="#bbb" stroke-width="2"/><circle cx="48" cy="126" r="14" fill="#f2b400"/><text x="48" y="132" text-anchor="middle" font-size="16" font-weight="700" fill="#fff">1</text><rect x="50" y="136" width="30" height="22" rx="4" fill="#d9b15a" stroke="#9d7b38" stroke-width="2"/><text x="65" y="210" text-anchor="middle" font-size="14" font-weight="700" fill="#444">원단입고</text><path d="M105 145 H125" stroke="#999" stroke-width="4"/><path d="M125 145 l-8 -6 v12 z" fill="#999"/><rect x="130" y="110" width="70" height="70" rx="12" fill="#fff" stroke="#bbb" stroke-width="2"/><circle cx="148" cy="126" r="14" fill="#f2b400"/><text x="148" y="132" text-anchor="middle" font-size="16" font-weight="700" fill="#fff">2</text><rect x="150" y="136" width="30" height="22" rx="4" fill="#d9b15a" stroke="#9d7b38" stroke-width="2"/><text x="165" y="210" text-anchor="middle" font-size="14" font-weight="700" fill="#444">인쇄</text><path d="M205 145 H225" stroke="#999" stroke-width="4"/><path d="M225 145 l-8 -6 v12 z" fill="#999"/><rect x="230" y="110" width="70" height="70" rx="12" fill="#fff" stroke="#bbb" stroke-width="2"/><circle cx="248" cy="126" r="14" fill="#f2b400"/><text x="248" y="132" text-anchor="middle" font-size="16" font-weight="700" fill="#fff">3</text><rect x="250" y="136" width="30" height="22" rx="4" fill="#d9b15a" stroke="#9d7b38" stroke-width="2"/><text x="265" y="210" text-anchor="middle" font-size="14" font-weight="700" fill="#444">톰슨</text><path d="M305 145 H325" stroke="#999" stroke-width="4"/><path d="M325 145 l-8 -6 v12 z" fill="#999"/><rect x="330" y="110" width="70" height="70" rx="12" fill="#fff" stroke="#bbb" stroke-width="2"/><circle cx="348" cy="126" r="14" fill="#f2b400"/><text x="348" y="132" text-anchor="middle" font-size="16" font-weight="700" fill="#fff">4</text><rect x="350" y="136" width="30" height="22" rx="4" fill="#d9b15a" stroke="#9d7b38" stroke-width="2"/><text x="365" y="210" text-anchor="middle" font-size="14" font-weight="700" fill="#444">접합</text><path d="M405 145 H425" stroke="#999" stroke-width="4"/><path d="M425 145 l-8 -6 v12 z" fill="#999"/><rect x="430" y="110" width="70" height="70" rx="12" fill="#fff" stroke="#bbb" stroke-width="2"/><circle cx="448" cy="126" r="14" fill="#f2b400"/><text x="448" y="132" text-anchor="middle" font-size="16" font-weight="700" fill="#fff">5</text><rect x="450" y="136" width="30" height="22" rx="4" fill="#d9b15a" stroke="#9d7b38" stroke-width="2"/><text x="465" y="210" text-anchor="middle" font-size="14" font-weight="700" fill="#444">검수</text><path d="M505 145 H525" stroke="#999" stroke-width="4"/><path d="M525 145 l-8 -6 v12 z" fill="#999"/><rect x="530" y="110" width="70" height="70" rx="12" fill="#fff" stroke="#bbb" stroke-width="2"/><circle cx="548" cy="126" r="14" fill="#f2b400"/><text x="548" y="132" text-anchor="middle" font-size="16" font-weight="700" fill="#fff">6</text><rect x="550" y="136" width="30" height="22" rx="4" fill="#d9b15a" stroke="#9d7b38" stroke-width="2"/><text x="565" y="210" text-anchor="middle" font-size="14" font-weight="700" fill="#444">포장</text>
</svg>