<svg xmlns="http://www.w3.org/2000/svg" width="500" height="420" viewBox="0 0 500 420">
<rect width="500" height="420" fill="#f7f7f7"/>
<polygon points="150,120 250,95 330,145 230,170" fill="#efe8da" stroke="#8b7d65" stroke-width="3"/>
<polygon points="90,150 150,120 230,170 170,200" fill="#d8cdb7" stroke="#8b7d65" stroke-width="3"/>
<polygon points="230,170 330,145 330,250 230,280" fill="#c0b39d" stroke="#8b7d65" stroke-width="3"/>
<polygon points="170,200 230,170 230,280 170,310" fill="#d8cdb7" stroke="#8b7d65" stroke-width="3"/>
<polygon points="90,150 170,200 170,310 90,260" fill="#c0b39d" stroke="#8b7d65" stroke-width="3"/>
<polygon points="90,150 150,120 120,65 65,100" fill="#efe8da" stroke="#8b7d65" stroke-width="3"/>
<polygon points="150,120 250,95 225,50 120,65" fill="#efe8da" stroke="#8b7d65" stroke-width="3"/>
<polygon points="250,95 330,145 375,92 225,50" fill="#efe8da" stroke="#8b7d65" stroke-width="3"/>
<text x="250" y="392" text-anchor="middle" font-size="30" font-weight="700" fill="#4a4a4a">B형(원터치)</text>
</svg>